<?xml version="1.0" encoding="utf-8"?>
<!-- Generator: Adobe Illustrator 16.0.0, SVG Export Plug-In . SVG Version: 6.00 Build 0)  -->
<!DOCTYPE svg PUBLIC "-//W3C//DTD SVG 1.1//EN" "http://www.w3.org/Graphics/SVG/1.1/DTD/svg11.dtd">
<svg version="1.1"
	 id="svg2328" xmlns:dc="http://purl.org/dc/elements/1.1/" xmlns:cc="http://web.resource.org/cc/" xmlns:rdf="http://www.w3.org/1999/02/22-rdf-syntax-ns#" xmlns:svg="http://www.w3.org/2000/svg" xmlns:sodipodi="http://sodipodi.sourceforge.net/DTD/sodipodi-0.dtd" xmlns:inkscape="http://www.inkscape.org/namespaces/inkscape" sodipodi:docname="aa.svg" sodipodi:docbase="C:\Documents and Settings\Alex Broersma.D2KY7761\Desktop" inkscape:version="0.45.1" sodipodi:version="0.32" inkscape:output_extension="org.inkscape.output.svg.inkscape"
	 xmlns="http://www.w3.org/2000/svg" xmlns:xlink="http://www.w3.org/1999/xlink" x="0px" y="0px" width="293px" height="194px"
	 viewBox="0 0 293 194" enable-background="new 0 0 293 194" xml:space="preserve">
<sodipodi:namedview  inkscape:cy="131.76504" inkscape:cx="219.80302" inkscape:zoom="4.0618557" pagecolor="#ffffff" bordercolor="#666666" borderopacity="1.0" gridtolerance="10.0" guidetolerance="10.0" objecttolerance="10.0" id="base" inkscape:current-layer="svg2328" inkscape:window-y="-4" inkscape:window-x="-4" inkscape:pageopacity="0.0" inkscape:pageshadow="2" inkscape:window-width="1440" inkscape:window-height="844">
	</sodipodi:namedview>
<path id="path6" fill="#FFFFFF" d="M291.287,55.059c-13.78-67.174-143.762-71.429-227.549-20.25v5.652
	C147.415-2.731,266.148-2.456,276.953,59.422c3.641,20.499-7.826,41.818-28.387,54.086v16.053
	C273.316,120.48,298.616,91.088,291.287,55.059 M138.926,172.67c-57.824,5.353-118.073-3.071-126.508-48.434
	C8.229,101.9,18.427,78.193,31.878,63.484v-7.875C7.624,76.957-5.551,103.961,2.056,135.844
	c9.701,40.916,61.407,64.076,140.344,56.364c31.255-3.018,72.157-13.116,100.543-28.782v-22.258
	C217.146,156.617,174.479,169.381,138.926,172.67z"/>
<path id="path8" fill="#FFFFFF" d="M238.312,45.348h-15.158v67.812c0,7.965,3.804,14.891,15.158,15.989"/>
<path id="path10" fill="#FFFFFF" d="M57.73,70.13H42.571v44.292c0,7.967,3.804,14.893,15.159,15.99"/>
<rect id="rect12" x="42.571" y="47.408" fill="#FFFFFF" width="15.159" height="14.426"/>
<path id="path14" fill="#FFFFFF" d="M148.571,129.699c-12.291,0-17.473-8.574-17.473-17.036V53.838h14.993V70.13h11.354V82.33
	h-11.354v29.426c0,3.461,1.654,5.359,5.235,5.359h6.119v12.584H148.571"/>
<path id="path16" fill="#FFFFFF" d="M188.426,81.589c-5.125,0-9.094,2.665-10.748,6.264c-0.992,2.17-1.323,3.819-1.486,6.486h23.206
	C199.066,87.826,196.143,81.589,188.426,81.589 M176.191,104.613c0,7.722,4.848,13.406,13.337,13.406
	c6.671,0,9.979-1.868,13.837-5.684l9.262,8.929c-5.954,5.878-12.183,9.45-23.207,9.45c-14.387,0-28.168-7.885-28.168-30.855
	c0-19.645,12.016-30.744,27.837-30.744c16.04,0,25.245,12.996,25.245,30.059v5.44L176.191,104.613"/>
<path id="path18" fill="#FFFFFF" d="M98.576,82.33c4.409,0,6.229,2.171,6.229,5.715v41.735h15.049V87.99
	c0-8.49-4.521-17.86-17.694-17.86H71.125v59.65h14.993V82.329"/>
<g enable-background="new    ">
	<path fill="#FFFFFF" d="M252.148,45.152c0.877,0,1.733,0.22,2.569,0.661c0.836,0.44,1.487,1.071,1.954,1.892
		c0.466,0.82,0.699,1.676,0.699,2.566c0,0.881-0.229,1.729-0.689,2.542c-0.459,0.814-1.104,1.445-1.933,1.895
		c-0.829,0.45-1.696,0.675-2.601,0.675c-0.905,0-1.772-0.225-2.602-0.675c-0.829-0.45-1.475-1.081-1.937-1.895
		c-0.462-0.813-0.692-1.661-0.692-2.542c0-0.89,0.234-1.746,0.703-2.566s1.121-1.451,1.957-1.892
		C250.414,45.372,251.271,45.152,252.148,45.152z M252.148,46c-0.734,0-1.449,0.184-2.145,0.552
		c-0.695,0.369-1.238,0.895-1.631,1.58c-0.393,0.685-0.589,1.398-0.589,2.139c0,0.737,0.192,1.443,0.578,2.119
		s0.925,1.202,1.617,1.58c0.693,0.377,1.416,0.566,2.169,0.566c0.752,0,1.475-0.188,2.168-0.566c0.692-0.377,1.23-0.904,1.614-1.58
		c0.383-0.676,0.574-1.382,0.574-2.119c0-0.741-0.195-1.454-0.585-2.139c-0.391-0.685-0.935-1.211-1.632-1.58
		C253.591,46.184,252.878,46,252.148,46z M249.855,53.098v-5.505h1.933c0.66,0,1.138,0.051,1.434,0.152s0.531,0.279,0.707,0.532
		c0.175,0.253,0.263,0.522,0.263,0.807c0,0.402-0.146,0.753-0.439,1.051c-0.294,0.298-0.683,0.465-1.168,0.501
		c0.199,0.082,0.358,0.179,0.479,0.292c0.227,0.217,0.503,0.581,0.831,1.092l0.686,1.078h-1.108l-0.498-0.868
		c-0.393-0.682-0.709-1.109-0.949-1.281c-0.166-0.126-0.409-0.19-0.728-0.19h-0.533v2.339H249.855z M250.763,50h1.102
		c0.526,0,0.885-0.077,1.077-0.23c0.191-0.154,0.287-0.357,0.287-0.61c0-0.163-0.046-0.309-0.139-0.437
		c-0.092-0.129-0.221-0.225-0.384-0.289c-0.164-0.063-0.468-0.095-0.911-0.095h-1.032V50z"/>
</g>
</svg>
